<?xml version="1.0" encoding="UTF-8"?>
<svg version="1.1" xmlns="http://www.w3.org/2000/svg" width="256" height="253">
<path d="M0 0 C1.09420761 -0.00671722 2.18841522 -0.01343445 3.31578064 -0.02035522 C6.90848422 -0.03924356 10.50099994 -0.04325535 14.09375 -0.04541016 C16.61466547 -0.0518463 19.1355802 -0.05857525 21.65649414 -0.06558228 C26.93523356 -0.07753354 32.21392608 -0.08135171 37.49267578 -0.08007812 C42.87918969 -0.07901295 48.26541554 -0.09303205 53.65185547 -0.12109375 C60.19276617 -0.15466941 66.73341948 -0.1681815 73.27441406 -0.16685867 C75.74920105 -0.16919819 78.22399152 -0.17792707 80.69873047 -0.19352341 C102.34543381 -0.31713486 122.82652386 0.33280072 139.3359375 15.96240234 C156.97048961 34.14612735 155.75279309 57.76457851 155.76171875 81.48193359 C155.76494234 83.51911949 155.76830719 85.55630516 155.77180481 87.5934906 C155.77775914 91.84708186 155.7796486 96.10065292 155.77905273 100.35424805 C155.77895147 105.74385486 155.79258406 111.13332891 155.80982494 116.5229044 C155.82106998 120.72798734 155.82296813 124.93303948 155.82244301 129.13813591 C155.82360516 131.12199293 155.82792453 133.10585124 155.83577538 135.08969307 C156.01063753 183.84528984 156.01063753 183.84528984 139.7890625 202.34912109 C122.06391149 219.42764642 96.18043494 218.45011561 73.3359375 218.45849609 C71.26246112 218.46171652 69.18898496 218.46508116 67.11550903 218.46858215 C62.78012567 218.47454759 58.44476217 218.47642478 54.109375 218.47583008 C48.59934169 218.47572873 43.08943803 218.48936416 37.57943535 218.50660229 C33.29816116 218.51781335 29.01691739 218.51974649 24.73563004 218.51922035 C22.70660074 218.52038744 20.67757033 218.52473622 18.64855576 218.53255272 C-4.31896845 218.61273775 -28.37194219 218.49996295 -46.21875 201.97802734 C-62.57030063 184.45292045 -61.72159348 162.00921163 -61.70703125 139.64599609 C-61.71092566 137.14699737 -61.71526185 134.64799931 -61.72001648 132.14900208 C-61.72744991 126.92686817 -61.72720842 121.70480191 -61.72192383 116.48266602 C-61.71613431 109.82908398 -61.73306196 103.17588529 -61.7562685 96.5223341 C-61.77108345 91.36524366 -61.77186699 86.20821917 -61.76875877 81.05111122 C-61.76926813 78.59980022 -61.77443236 76.14848514 -61.78457069 73.69719505 C-61.86549956 51.39567427 -61.39964183 31.69304203 -45.04296875 14.70068359 C-32.67452009 3.39500534 -16.28058634 -0.01459422 0 0 Z " fill="#0C1E2F" transform="translate(82.40625,17.70947265625)"/>
<path d="M0 0 C2.4523472 1.28456282 4.65154114 2.54290163 6.9375 4.0625 C7.82018555 4.62807617 7.82018555 4.62807617 8.72070312 5.20507812 C10.15421463 6.12578877 11.5781572 7.06136994 13 8 C11.40989645 11.3273092 9.96655303 13.71151623 7 16 C3.81362223 15.91829801 2.17088709 15.11107661 -0.5 13.375 C-2.87159043 11.79666485 -2.87159043 11.79666485 -5.375 12.0625 C-10.5584874 13.8867641 -10.5584874 13.8867641 -15 17 C-16.03321512 19.88831796 -15.95586929 22.65963737 -15.90234375 25.703125 C-15.92078087 26.95980988 -15.92078087 26.95980988 -15.93959045 28.24188232 C-15.97133037 30.91214515 -15.95504279 33.57965067 -15.9375 36.25 C-15.95060844 38.06252568 -15.96684802 39.8750316 -15.98632812 41.6875 C-16.02719121 46.12558866 -16.02499407 50.56181328 -16 55 C-12.41897419 51.43851417 -8.88061491 47.83768159 -5.35227966 44.22402954 C-2.349282 41.15425286 0.66689179 38.0975661 3.68383789 35.04150391 C5.27587017 33.42414422 6.86341219 31.80235286 8.4465332 30.17626953 C10.73530582 27.82712275 13.03961231 25.49425778 15.34765625 23.1640625 C16.05503433 22.43087799 16.76241241 21.69769348 17.4912262 20.94229126 C18.15549118 20.27764862 18.81975616 19.61300598 19.50415039 18.92822266 C20.08419327 18.33707672 20.66423615 17.74593079 21.26185608 17.13687134 C23 16 23 16 25.03123474 16.22128296 C27.99308206 17.39279946 30.67331436 18.91867246 33.4375 20.5 C34.54996094 21.1290625 35.66242188 21.758125 36.80859375 22.40625 C37.43214752 22.79717834 38.05570129 23.18810669 38.69815063 23.59088135 C40.49251329 24.68933285 42.33861087 25.70341167 44.20101929 26.68206787 C49.17138181 29.47011035 53.23014273 31.8199601 55.18684387 37.36083984 C55.60461426 41.41884887 55.62677712 45.29123307 55.48046875 49.359375 C55.47143188 50.83666862 55.46731162 52.31399964 55.46784973 53.7913208 C55.45548668 56.87289953 55.40008483 59.94950732 55.31030273 63.02978516 C55.19664753 66.9705469 55.16701813 70.90627452 55.16634655 74.84850693 C55.1608225 77.89278554 55.1235575 80.93598691 55.07546425 83.97986603 C55.05392824 85.43259429 55.03926659 86.88544191 55.03172874 88.33831024 C54.93322786 99.57762728 54.93322786 99.57762728 52.73406982 102.92945862 C51.18139648 104.25512695 51.18139648 104.25512695 48 106 C47.31147949 106.50072021 46.62295898 107.00144043 45.91357422 107.51733398 C43.91114918 108.84097533 41.89754163 110.14479946 39.875 111.4375 C39.17246094 111.90865234 38.46992188 112.37980469 37.74609375 112.86523438 C37.06417969 113.30029297 36.38226563 113.73535156 35.6796875 114.18359375 C34.76292236 114.77998657 34.76292236 114.77998657 33.82763672 115.38842773 C32 116 32 116 30.15313721 115.29238892 C27.62298694 113.77370346 25.79916244 112.03152681 23.72216797 109.93334961 C22.88805389 109.09585678 22.05393982 108.25836395 21.19454956 107.39549255 C20.30277008 106.49025345 19.4109906 105.58501434 18.4921875 104.65234375 C17.08402112 103.23623158 15.67585227 101.82012186 14.26753426 100.4041605 C12.29940412 98.42291095 10.33585396 96.43715265 8.37231445 94.45135498 C4.92922893 90.97023439 1.48126777 87.49395783 -1.97018433 84.02113342 C-3.80701904 82.1720022 -5.64117469 80.32020529 -7.47244263 78.46556091 C-8.30025238 77.63122025 -9.12806213 76.79687958 -9.98095703 75.93725586 C-10.71057648 75.19938339 -11.44019592 74.46151093 -12.19192505 73.70127869 C-13.90132739 71.9296594 -13.90132739 71.9296594 -16 71 C-16 81.23 -16 91.46 -16 102 C-20.3785374 100.24858504 -23.97072742 98.37016034 -28 96 C-28.13903982 85.26466505 -28.24564123 74.52954439 -28.31087303 63.79349232 C-28.34218189 58.80821231 -28.38464654 53.82354843 -28.45263672 48.83862305 C-28.51784523 44.02751808 -28.55370939 39.21700556 -28.56926346 34.40549278 C-28.58034716 32.57020426 -28.60199175 30.73494806 -28.63438034 28.89991188 C-28.67796555 26.32815209 -28.68393355 23.75883748 -28.68115234 21.18676758 C-28.702724 20.42863266 -28.72429565 19.67049774 -28.746521 18.88938904 C-28.71273546 16.00054012 -28.588082 13.70158428 -26.68690777 11.43347549 C-25.07911682 10.07643127 -25.07911682 10.07643127 -22 8 C-21.35748291 7.53480957 -20.71496582 7.06961914 -20.05297852 6.59033203 C-18.23494192 5.41471962 -16.40378449 4.26386161 -14.5625 3.125 C-13.93279297 2.70992187 -13.30308594 2.29484375 -12.65429688 1.8671875 C-8.10534628 -0.93792078 -5.33485471 -1.5595117 0 0 Z " fill="#81DDDE" transform="translate(134,53)"/>
<path d="M0 0 C3.8714714 1.49375255 7.19282742 3.24967877 10.6875 5.5 C11.64011719 6.1084375 12.59273437 6.716875 13.57421875 7.34375 C16 9 16 9 18 11 C18.30107117 13.25018311 18.30107117 13.25018311 18.36987305 16.08886719 C18.39877121 17.15047058 18.42766937 18.21207397 18.45744324 19.30584717 C18.47535416 20.45788635 18.49326508 21.60992554 18.51171875 22.796875 C18.53023392 23.97840149 18.54874908 25.15992798 18.56782532 26.3772583 C18.59991545 28.88229236 18.62554177 31.38741616 18.64526367 33.89257812 C18.67334602 36.45732392 18.72109546 39.02193219 18.78881836 41.5859375 C18.8862227 45.28206306 18.92429342 48.97463315 18.94921875 52.671875 C18.98939621 53.81581726 19.02957367 54.95975952 19.07096863 56.1383667 C19.0289312 63.95696262 19.0289312 63.95696262 15.93203735 67.09631348 C13.67629114 68.61217317 11.47202987 69.87715269 9 71 C5.89879774 69.61577295 3.74029799 68.00883669 1.31713867 65.6394043 C0.61348679 64.9549675 -0.0901651 64.2705307 -0.81513977 63.56535339 C-1.56321396 62.82577896 -2.31128815 62.08620453 -3.08203125 61.32421875 C-3.85560471 60.56204544 -4.62917816 59.79987213 -5.42619324 59.01460266 C-7.05703995 57.40262861 -8.68501161 55.78774139 -10.31030273 54.17016602 C-12.80679102 51.69316442 -15.32377231 49.23828323 -17.84179688 46.78320312 C-19.42318836 45.21486485 -21.00331097 43.64524588 -22.58203125 42.07421875 C-23.34022659 41.34071701 -24.09842194 40.60721527 -24.8795929 39.85148621 C-25.56748398 39.15759293 -26.25537506 38.46369965 -26.96411133 37.7487793 C-27.57603836 37.14414352 -28.18796539 36.53950775 -28.81843567 35.91654968 C-30 34 -30 34 -29.86322021 31.46755981 C-28.96129292 28.88935379 -28.15377351 27.66626228 -26.22436523 25.77026367 C-25.64383896 25.19003952 -25.06331268 24.60981537 -24.4651947 24.01200867 C-23.83601639 23.40347549 -23.20683807 22.79494232 -22.55859375 22.16796875 C-21.91632339 21.53135818 -21.27405304 20.89474762 -20.61231995 20.23884583 C-18.56325815 18.21213477 -16.500716 16.19979019 -14.4375 14.1875 C-13.04400956 12.81407608 -11.65142022 11.43973724 -10.25976562 10.06445312 C-6.85020058 6.69893831 -3.42848004 3.34623954 0 0 Z " fill="#0A1D2E" transform="translate(159,83)"/>
<path d="M0 0 C0.27187078 1.86684602 0.46492524 3.74526495 0.625 5.625 C0.79902344 7.19121094 0.79902344 7.19121094 0.9765625 8.7890625 C0.65429688 9.84867188 0.33203125 10.90828125 0 12 C-1.62137958 12.86313509 -3.27907656 13.65902046 -4.95385742 14.41333008 C-8.12360621 16.2491685 -9.68786931 17.20109648 -11.03424072 20.64715576 C-11.5090702 23.99311856 -11.67381493 27.21804299 -11.71484375 30.59765625 C-11.75049942 31.82350937 -11.78615509 33.04936249 -11.82289124 34.31236267 C-11.87782586 36.90499913 -11.90554699 39.49833547 -11.90795898 42.09155273 C-11.93730248 46.03594865 -12.13117829 49.94988618 -12.33398438 53.88867188 C-12.93994338 66.40888088 -12.93994338 66.40888088 -7.98873901 77.43450928 C-3.05921344 81.57741037 2.41245678 84.29697056 8.30934143 86.80258179 C12.52480205 88.6785795 16.3863545 91.09067868 20.3125 93.5 C22.23769395 94.62679032 24.16909727 95.7415611 26.10400391 96.8515625 C27.45982157 97.67280462 28.78252238 98.54973162 30.07958984 99.4609375 C34.01941866 102.41038225 34.01941866 102.41038225 38.68359375 102.515625 C39.83021484 101.76539063 39.83021484 101.76539063 41 101 C41.83660156 100.47921875 42.67320312 99.9584375 43.53515625 99.421875 C45.22666761 98.3029154 46.91415762 97.17785405 48.59765625 96.046875 C51 95 51 95 53.13671875 95.703125 C55.53643151 97.37336533 57.81288184 99.05589497 60 101 C60 101.66 60 102.32 60 103 C58.17993164 104.31274414 58.17993164 104.31274414 55.66015625 105.78515625 C54.76232422 106.31560547 53.86449219 106.84605469 52.93945312 107.39257812 C51.99005859 107.94365234 51.04066406 108.49472656 50.0625 109.0625 C48.19857679 110.15645902 46.33526219 111.25145591 44.47265625 112.34765625 C43.22367554 113.07480835 43.22367554 113.07480835 41.94946289 113.81665039 C40.06727364 114.85354465 40.06727364 114.85354465 39 116 C31.76983501 115.94057399 26.59879449 112.11489655 20.625 108.375 C18.40402557 107.00979871 16.18265931 105.64523468 13.9609375 104.28125 C13.3927832 103.93005096 12.82462891 103.57885193 12.23925781 103.2170105 C8.18007585 100.70977218 4.08911105 98.26230701 -0.0234375 95.84375 C-1.15088379 95.17811035 -2.27833008 94.5124707 -3.43994141 93.82666016 C-5.60359737 92.55093617 -7.76983973 91.27958599 -9.93896484 90.01318359 C-11.41550537 89.13654053 -11.41550537 89.13654053 -12.921875 88.2421875 C-14.21496582 87.48204346 -14.21496582 87.48204346 -15.53417969 86.70654297 C-19.49761413 83.9635324 -22.61418524 81.76983454 -23.67529297 76.9022522 C-23.69736816 75.74422089 -23.71944336 74.58618958 -23.7421875 73.39306641 C-23.77731445 72.07464752 -23.81244141 70.75622864 -23.84863281 69.39785767 C-23.85959647 67.96577427 -23.86833067 66.53367233 -23.875 65.1015625 C-23.89362279 63.62331407 -23.91283781 62.145073 -23.93261719 60.6668396 C-23.96701636 57.57166936 -23.98032601 54.47718737 -23.98144531 51.38183594 C-23.98652576 47.42670892 -24.0651444 43.47679044 -24.1625061 39.52300453 C-24.22580939 36.47033348 -24.23892492 33.4189085 -24.23834229 30.36564255 C-24.24605708 28.90868997 -24.27163242 27.45171258 -24.31585693 25.99541092 C-24.44085914 21.48722616 -24.37211175 17.34713481 -23 13 C-19.71451872 9.71141263 -16.21349451 7.87997627 -12 6 C-10.94683594 5.34128906 -9.89367187 4.68257813 -8.80859375 4.00390625 C-8.02613281 3.52824219 -7.24367188 3.05257812 -6.4375 2.5625 C-5.63183594 2.06878906 -4.82617188 1.57507813 -3.99609375 1.06640625 C-2 0 -2 0 0 0 Z " fill="#47C1C8" transform="translate(93,74)"/>
<path d="M0 0 C0.33 0 0.66 0 1 0 C1.33 13.53 1.66 27.06 2 41 C2.33 41 2.66 41 3 41 C2.98839844 41.66386719 2.97679688 42.32773438 2.96484375 43.01171875 C2.91871494 47.52575189 3.08835514 51.57201068 4 56 C3.69728039 57.34061543 3.36162029 58.67405895 3 60 C2.96154557 61.99963028 2.95455719 64.00051633 3 66 C5.475 65.505 5.475 65.505 8 65 C8.0825 63.906875 8.165 62.81375 8.25 61.6875 C9 58 9 58 10.8125 56 C13 55 13 55 15.25 55.3125 C15.8275 55.539375 16.405 55.76625 17 56 C18.98 53.525 18.98 53.525 21 51 C20.443125 50.13375 20.443125 50.13375 19.875 49.25 C19 47 19 47 19.875 44.75 C20.24625 44.1725 20.6175 43.595 21 43 C22.32 43.66 23.64 44.32 25 45 C24.67459229 45.81549316 24.34918457 46.63098633 24.01391602 47.47119141 C23.99765913 51.59359465 24.50553955 52.05922721 27.19116211 54.98583984 C28.70204281 56.49561233 30.23221265 57.9862364 31.77734375 59.4609375 C32.57781631 60.25150543 33.37828888 61.04207336 34.20301819 61.8565979 C36.76523587 64.3796095 39.35070216 66.87722006 41.9375 69.375 C43.6780186 71.0804138 45.4169719 72.78742669 47.15429688 74.49609375 C51.41820365 78.68279204 55.70145945 82.84888464 60 87 C63.59397035 85.66509673 66.94389173 84.33947818 70 82 C70.75964559 79.5397912 70.75964559 79.5397912 70.65942383 76.70239258 C70.68888847 75.08105156 70.68888847 75.08105156 70.71894836 73.42695618 C70.71501572 72.26125595 70.71108307 71.09555573 70.70703125 69.89453125 C70.72971321 68.10301888 70.72971321 68.10301888 70.75285339 66.27531433 C70.79590004 62.4541867 70.80458533 58.63384645 70.8125 54.8125 C70.83563091 52.22458819 70.86099328 49.63669529 70.88867188 47.04882812 C70.95169208 40.69921143 70.98649149 34.34990454 71 28 C71.33 28 71.66 28 72 28 C72.33 40.54 72.66 53.08 73 66 C73.99 65.01 74.98 64.02 76 63 C76 62.34 76 61.68 76 61 C77.375 59.375 77.375 59.375 79 58 C79.66 58 80.32 58 81 58 C81.89999023 64.7499267 82.25051535 71.50970324 82.4375 78.3125 C82.48390625 79.18422852 82.5303125 80.05595703 82.578125 80.95410156 C82.65489786 85.48195541 82.62324986 87.31587457 79.48046875 90.765625 C78.33902791 91.53879378 77.17694004 92.28202417 76 93 C75.36344482 93.4436792 74.72688965 93.8873584 74.07104492 94.34448242 C72.03506881 95.7597311 69.96413794 97.10223466 67.875 98.4375 C67.17246094 98.90865234 66.46992188 99.37980469 65.74609375 99.86523438 C65.06417969 100.30029297 64.38226563 100.73535156 63.6796875 101.18359375 C62.76292236 101.77998657 62.76292236 101.77998657 61.82763672 102.38842773 C60 103 60 103 58.15313721 102.29238892 C55.62298694 100.77370346 53.79916244 99.03152681 51.72216797 96.93334961 C50.88805389 96.09585678 50.05393982 95.25836395 49.19454956 94.39549255 C48.30277008 93.49025345 47.4109906 92.58501434 46.4921875 91.65234375 C45.08402112 90.23623158 43.67585227 88.82012186 42.26753426 87.4041605 C40.29940412 85.42291095 38.33585396 83.43715265 36.37231445 81.45135498 C32.92922893 77.97023439 29.48126777 74.49395783 26.02981567 71.02113342 C24.19298096 69.1720022 22.35882531 67.32020529 20.52755737 65.46556091 C19.69974762 64.63122025 18.87193787 63.79687958 18.01904297 62.93725586 C17.28942352 62.19938339 16.55980408 61.46151093 15.80807495 60.70127869 C14.09867261 58.9296594 14.09867261 58.9296594 12 58 C12 68.23 12 78.46 12 89 C7 87 7 87 0 83 C0 55.61 0 28.22 0 0 Z " fill="#0EA0B3" transform="translate(106,66)"/>
<path d="M0 0 C7.1065054 3.71624594 14.00148428 7.74792701 20.875 11.875 C22.17304565 12.65109619 22.17304565 12.65109619 23.49731445 13.44287109 C27.37765168 15.77348517 31.23054959 18.12422259 35.00390625 20.625 C35.59252441 21.00930176 36.18114258 21.39360352 36.78759766 21.78955078 C38.32501988 22.8010008 39.84866153 23.83331209 41.37109375 24.8671875 C43.93405681 26.28191051 43.93405681 26.28191051 46.53125 25.3984375 C49.99633783 23.43561876 53.29316657 21.26684033 56.59765625 19.046875 C59 18 59 18 61.13671875 18.703125 C63.53643151 20.37336533 65.81288184 22.05589497 68 24 C68 24.66 68 25.32 68 26 C66.17993164 27.31274414 66.17993164 27.31274414 63.66015625 28.78515625 C62.76232422 29.31560547 61.86449219 29.84605469 60.93945312 30.39257812 C59.51536133 31.21918945 59.51536133 31.21918945 58.0625 32.0625 C56.19857679 33.15645902 54.33526219 34.25145591 52.47265625 35.34765625 C51.64000244 35.83242432 50.80734863 36.31719238 49.94946289 36.81665039 C48.06727364 37.85354465 48.06727364 37.85354465 47 39 C39.57845379 39 34.1151516 34.82179768 28 31 C26.89599854 30.32316162 25.79199707 29.64632324 24.65454102 28.94897461 C22.45075109 27.59781752 20.24959807 26.24234892 18.05126953 24.88232422 C14.03543027 22.40495818 9.9899157 19.9793753 5.9375 17.5625 C4.75889776 16.85583025 3.58048479 16.14884464 2.40234375 15.44140625 C1.60957031 14.96574219 0.81679687 14.49007812 0 14 C0.33 13.01 0.66 12.02 1 11 C1.99 10.67 2.98 10.34 4 10 C4.33 8.02 4.66 6.04 5 4 C4.360625 3.896875 3.72125 3.79375 3.0625 3.6875 C2.381875 3.460625 1.70125 3.23375 1 3 C0.67 2.01 0.34 1.02 0 0 Z " fill="#189AAD" transform="translate(85,151)"/>
<path d="M0 0 C0.33 0 0.66 0 1 0 C1.33 13.53 1.66 27.06 2 41 C2.33 41 2.66 41 3 41 C2.98839844 41.66386719 2.97679688 42.32773438 2.96484375 43.01171875 C2.91871494 47.52575189 3.08835514 51.57201068 4 56 C3.69728039 57.34061543 3.36162029 58.67405895 3 60 C2.96154557 61.99963028 2.95455719 64.00051633 3 66 C5.475 65.505 5.475 65.505 8 65 C8.0825 63.906875 8.165 62.81375 8.25 61.6875 C9 58 9 58 10.8125 56 C13 55 13 55 15.25 55.3125 C15.8275 55.539375 16.405 55.76625 17 56 C18.98 53.525 18.98 53.525 21 51 C20.443125 50.13375 20.443125 50.13375 19.875 49.25 C19 47 19 47 19.875 44.75 C20.24625 44.1725 20.6175 43.595 21 43 C22.32 43.66 23.64 44.32 25 45 C24.7520166 45.89509277 24.5040332 46.79018555 24.24853516 47.71240234 C23.65392403 51.02187038 23.65392403 51.02187038 25.61474609 53.36181641 C26.40961426 54.10093262 27.20448242 54.84004883 28.0234375 55.6015625 C28.879375 56.42140625 29.7353125 57.24125 30.6171875 58.0859375 C31.98230469 59.34277344 31.98230469 59.34277344 33.375 60.625 C35.16006655 62.29786237 36.93901828 63.97728054 38.7109375 65.6640625 C39.50806152 66.40092285 40.30518555 67.1377832 41.12646484 67.89697266 C43.01878033 70.02108076 43.62720668 71.22092391 44 74 C40.25 75.125 40.25 75.125 38 74 C38.33 75.32 38.66 76.64 39 78 C37.88625 77.5359375 37.88625 77.5359375 36.75 77.0625 C34.17851674 75.96808773 34.17851674 75.96808773 32.06689453 75.65625 C29.37493634 74.80153896 28.13649779 73.46216223 26.1796875 71.4375 C25.12974609 70.36628906 25.12974609 70.36628906 24.05859375 69.2734375 C23.33800781 68.52320313 22.61742187 67.77296875 21.875 67 C20.43702744 65.51876101 18.99702138 64.03949255 17.5546875 62.5625 C16.92030762 61.90378906 16.28592773 61.24507812 15.63232422 60.56640625 C14.06835077 58.9105859 14.06835077 58.9105859 12 58 C12 68.23 12 78.46 12 89 C7 87 7 87 0 83 C0 55.61 0 28.22 0 0 Z " fill="#20B3BF" transform="translate(106,66)"/>
<path d="M0 0 C0.33 0 0.66 0 1 0 C1 15.51 1 31.02 1 47 C0.67 47 0.34 47 0 47 C0 43.7 0 40.4 0 37 C-0.66 37 -1.32 37 -2 37 C-2.33 37.99 -2.66 38.98 -3 40 C-3.66 40 -4.32 40 -5 40 C-4.67 40.99 -4.34 41.98 -4 43 C-5.32 43.99 -6.64 44.98 -8 46 C-10.68078098 43.31921902 -9.18564873 35.35998193 -9.1875 31.75 C-9.20586914 29.88794922 -9.20586914 29.88794922 -9.22460938 27.98828125 C-9.22654297 26.79074219 -9.22847656 25.59320313 -9.23046875 24.359375 C-9.23457764 23.26077148 -9.23868652 22.16216797 -9.24291992 21.03027344 C-8.99584585 17.94817957 -8.19287045 15.82357688 -7 13 C-7.18335354 9.85537767 -7.18335354 9.85537767 -7.875 6.6875 C-8.07867187 5.61886719 -8.28234375 4.55023438 -8.4921875 3.44921875 C-8.65976563 2.64097656 -8.82734375 1.83273438 -9 1 C-7.700625 1.020625 -6.40125 1.04125 -5.0625 1.0625 C-3.70834367 1.08399454 -2.35243917 1.07148199 -1 1 C-0.67 0.67 -0.34 0.34 0 0 Z " fill="#38D9D8" transform="translate(187,87)"/>
<path d="M0 0 C0.58910156 0.45246094 1.17820313 0.90492188 1.78515625 1.37109375 C3.14640625 2.36109375 3.14640625 2.36109375 4.53515625 3.37109375 C5.64890625 4.36109375 5.64890625 4.36109375 6.78515625 5.37109375 C6.78515625 6.03109375 6.78515625 6.69109375 6.78515625 7.37109375 C4.96508789 8.68383789 4.96508789 8.68383789 2.4453125 10.15625 C1.54748047 10.68669922 0.64964844 11.21714844 -0.27539062 11.76367188 C-1.22478516 12.31474609 -2.17417969 12.86582031 -3.15234375 13.43359375 C-5.01626696 14.52755277 -6.87958156 15.62254966 -8.7421875 16.71875 C-9.99116821 17.4459021 -9.99116821 17.4459021 -11.26538086 18.18774414 C-13.14757011 19.2246384 -13.14757011 19.2246384 -14.21484375 20.37109375 C-21.00571061 20.22660722 -25.64821584 17.0336437 -31.21484375 13.37109375 C-30.55484375 12.38109375 -29.89484375 11.39109375 -29.21484375 10.37109375 C-28.55484375 10.37109375 -27.89484375 10.37109375 -27.21484375 10.37109375 C-27.21484375 9.71109375 -27.21484375 9.05109375 -27.21484375 8.37109375 C-26.22484375 8.37109375 -25.23484375 8.37109375 -24.21484375 8.37109375 C-24.21484375 7.71109375 -24.21484375 7.05109375 -24.21484375 6.37109375 C-22.99796875 6.70109375 -21.78109375 7.03109375 -20.52734375 7.37109375 C-14.85834022 8.09996563 -11.11726912 5.28828476 -6.73364258 2.09179688 C-2.6908971 -0.76408189 -2.6908971 -0.76408189 0 0 Z " fill="#15869D" transform="translate(146.21484375,169.62890625)"/>
<path d="M0 0 C0.33 0 0.66 0 1 0 C1.33 13.53 1.66 27.06 2 41 C2.33 41 2.66 41 3 41 C2.98839844 41.66386719 2.97679688 42.32773438 2.96484375 43.01171875 C2.91871494 47.52575189 3.08835514 51.57201068 4 56 C3.69728039 57.34061543 3.36162029 58.67405895 3 60 C2.96154557 61.99963028 2.95455719 64.00051633 3 66 C5.475 65.505 5.475 65.505 8 65 C8.33 64.01 8.66 63.02 9 62 C9.66 62 10.32 62 11 62 C11.33 61.01 11.66 60.02 12 59 C12 68.9 12 78.8 12 89 C7 87 7 87 0 83 C0 55.61 0 28.22 0 0 Z " fill="#2E9DA9" transform="translate(106,66)"/>
<path d="M0 0 C14.92503789 -0.0467164 29.85007012 -0.08198708 44.77516556 -0.10362434 C51.7051157 -0.11393784 58.63502042 -0.12799956 65.56494141 -0.15087891 C72.24982072 -0.17293873 78.93464305 -0.18456143 85.61956024 -0.18975449 C88.17289728 -0.19345639 90.72623166 -0.20068505 93.27954865 -0.21146011 C96.84950902 -0.22592939 100.41927295 -0.22797983 103.98925781 -0.22705078 C105.05021164 -0.23424133 106.11116547 -0.24143188 107.20426941 -0.24884033 C108.66395897 -0.24471634 108.66395897 -0.24471634 110.15313721 -0.24050903 C110.99749958 -0.24235262 111.84186195 -0.24419621 112.71181107 -0.24609566 C115.20882238 0.02245893 116.84161821 0.7472903 119 2 C116.6036828 2.7987724 115.17122416 3.035243 112.66888428 2.52018738 C109.96759282 1.99368358 107.72688187 1.96722953 104.98535156 2.11450195 C103.98646912 2.16197067 102.98758667 2.20943939 101.95843506 2.25834656 C100.86355774 2.31360001 99.76868042 2.36885345 98.640625 2.42578125 C82.05415447 3.14616005 65.47666316 3.18758076 48.87695312 3.18530273 C44.55240338 3.18519937 40.22801146 3.19908169 35.9034996 3.21607494 C32.52853657 3.22719165 29.15361259 3.22922238 25.77863312 3.22869301 C24.18232914 3.2298647 22.58602388 3.23424035 20.98973846 3.24202538 C18.77396678 3.25186112 16.55855126 3.24893819 14.34277344 3.24291992 C12.4630484 3.24505745 12.4630484 3.24505745 10.54534912 3.24723816 C6.70548534 2.97946175 3.6472732 2.18112724 0 1 C0 0.67 0 0.34 0 0 Z " fill="#28313F" transform="translate(71,18)"/>
<path d="M0 0 C0.11679952 4.18726294 0.18745327 8.37410301 0.25 12.5625 C0.30027344 14.33463867 0.30027344 14.33463867 0.3515625 16.14257812 C0.42851218 23.01033687 0.15579718 27.42894118 -4 33 C-4.66 32.67 -5.32 32.34 -6 32 C-7.27536232 26.55072464 -7.27536232 26.55072464 -6 24 C-6.99 24 -7.98 24 -9 24 C-9 18.72 -9 13.44 -9 8 C-7.68 7.34 -6.36 6.68 -5 6 C-5 5.01 -5 4.02 -5 3 C-2.55555556 0 -2.55555556 0 0 0 Z " fill="#06B9C6" transform="translate(187,124)"/>
<path d="M0 0 C0.74625441 4.20804568 1.05901427 7.83142914 0 12 C-3.623612 15.19450005 -7.56936194 17.12752796 -12 19 C-12 17.02 -12 15.04 -12 13 C-13.32 13.33 -14.64 13.66 -16 14 C-16.33 13.34 -16.66 12.68 -17 12 C-18.65 13.32 -20.3 14.64 -22 16 C-22 14.68 -22 13.36 -22 12 C-20.48706055 10.65966797 -20.48706055 10.65966797 -18.38671875 9.4921875 C-17.63326172 9.06292969 -16.87980469 8.63367188 -16.10351562 8.19140625 C-15.30623047 7.75699219 -14.50894531 7.32257813 -13.6875 6.875 C-12.12869437 5.99777222 -10.57009265 5.12018199 -9.01171875 4.2421875 C-8.31522217 3.8591748 -7.61872559 3.47616211 -6.90112305 3.08154297 C-1.48442438 0 -1.48442438 0 0 0 Z " fill="#9DE3E3" transform="translate(93,74)"/>
<path d="M0 0 C0.33 0 0.66 0 1 0 C1 17.82 1 35.64 1 54 C1.99 54 2.98 54 4 54 C3.67 55.32 3.34 56.64 3 58 C3.66 58.33 4.32 58.66 5 59 C5.625 61.0625 5.625 61.0625 6 63 C6.12375 62.401875 6.2475 61.80375 6.375 61.1875 C7 59 7 59 9 56 C9.30066154 53.24582682 9.50925299 50.57354853 9.625 47.8125 C9.68300781 46.68811523 9.68300781 46.68811523 9.7421875 45.54101562 C9.83628216 43.69440801 9.91922319 41.8472381 10 40 C10.33 40 10.66 40 11 40 C11.17499733 43.2284763 11.28106618 46.45572926 11.375 49.6875 C11.45041016 51.05551758 11.45041016 51.05551758 11.52734375 52.45117188 C11.67206768 59.08435223 11.67206768 59.08435223 9.70800781 61.76025391 C7.57394258 63.59918245 5.89554034 65 3 65 C3 64.01 3 63.02 3 62 C1.02 62.495 1.02 62.495 -1 63 C-1 63.66 -1 64.32 -1 65 C-0.34 65.33 0.32 65.66 1 66 C-0.65 65.67 -2.3 65.34 -4 65 C-4 64.34 -4 63.68 -4 63 C-4.66 63 -5.32 63 -6 63 C-5.67 61.68 -5.34 60.36 -5 59 C-4.34 59 -3.68 59 -3 59 C-1.34262344 55.35622292 -0.73726324 52.46856726 -0.68115234 48.4753418 C-0.66128265 47.39459885 -0.64141296 46.3138559 -0.62094116 45.20036316 C-0.60361435 43.46729668 -0.60361435 43.46729668 -0.5859375 41.69921875 C-0.56657135 40.50770706 -0.5472052 39.31619537 -0.5272522 38.08857727 C-0.46754104 34.28829068 -0.42110419 30.48797366 -0.375 26.6875 C-0.3368125 24.10871085 -0.29776032 21.52993435 -0.2578125 18.95117188 C-0.16184631 12.63422698 -0.07677384 6.31720572 0 0 Z " fill="#1C97A3" transform="translate(177,94)"/>
<path d="M0 0 C6.67353409 0.28398017 10.71077185 3.07805532 16 7 C15.67 7.99 15.34 8.98 15 10 C12.36 9.67 9.72 9.34 7 9 C7.23976562 9.80824219 7.47953125 10.61648437 7.7265625 11.44921875 C8.02304688 12.51785156 8.31953125 13.58648437 8.625 14.6875 C8.92664063 15.74324219 9.22828125 16.79898438 9.5390625 17.88671875 C10.05006883 21.33817678 9.57755071 22.9413675 8 26 C7.67 26 7.34 26 7 26 C7 22.37 7 18.74 7 15 C5.68 14.34 4.36 13.68 3 13 C0.65147725 11.69208286 -1.67141404 10.34341498 -4 9 C-4 8.34 -4 7.68 -4 7 C-2.35 6.34 -0.7 5.68 1 5 C0.67 3.35 0.34 1.7 0 0 Z " fill="#79DFDE" transform="translate(171,79)"/>
<path d="M0 0 C2.39211377 1.66738439 4.66250298 3.34627001 6.84375 5.28515625 C6.84375 5.94515625 6.84375 6.60515625 6.84375 7.28515625 C4.39453125 9.01171875 4.39453125 9.01171875 1.15625 10.91015625 C0.10050781 11.54179687 -0.95523438 12.1734375 -2.04296875 12.82421875 C-5.11661645 14.26655782 -6.82631229 14.61876782 -10.15625 14.28515625 C-9.82625 13.62515625 -9.49625 12.96515625 -9.15625 12.28515625 C-8.49625 12.28515625 -7.83625 12.28515625 -7.15625 12.28515625 C-7.15625 11.62515625 -7.15625 10.96515625 -7.15625 10.28515625 C-8.1153125 10.56359375 -8.1153125 10.56359375 -9.09375 10.84765625 C-9.774375 10.99203125 -10.455 11.13640625 -11.15625 11.28515625 C-12.15625 10.28515625 -12.15625 10.28515625 -12.515625 7.9375 C-12.15625 5.28515625 -12.15625 5.28515625 -10.109375 3.4140625 C-9.21734375 2.89714844 -8.3253125 2.38023437 -7.40625 1.84765625 C-6.52453125 1.31269531 -5.6428125 0.77773437 -4.734375 0.2265625 C-2.15625 -0.71484375 -2.15625 -0.71484375 0 0 Z " fill="#138BA2" transform="translate(146.15625,169.71484375)"/>
<path d="M0 0 C1.32 0.66 2.64 1.32 4 2 C3.61521484 3.33417969 3.61521484 3.33417969 3.22265625 4.6953125 C2.63833686 8.08122003 2.63833686 8.08122003 4.87109375 10.5546875 C5.71800781 11.32039063 6.56492188 12.08609375 7.4375 12.875 C8.28183594 13.65617187 9.12617188 14.43734375 9.99609375 15.2421875 C10.65738281 15.82226562 11.31867188 16.40234375 12 17 C11.01 17.33 10.02 17.66 9 18 C9 17.34 9 16.68 9 16 C8.34 16 7.68 16 7 16 C6.67 15.67 6.34 15.34 6 15 C6 15.66 6 16.32 6 17 C5.38125 17.103125 4.7625 17.20625 4.125 17.3125 C1.63473516 17.87525373 1.63473516 17.87525373 0 21 C0.99 20.67 1.98 20.34 3 20 C2.67 21.32 2.34 22.64 2 24 C1.54109375 23.59007812 1.0821875 23.18015625 0.609375 22.7578125 C-0.00421875 22.21898437 -0.6178125 21.68015625 -1.25 21.125 C-1.85328125 20.59132812 -2.4565625 20.05765625 -3.078125 19.5078125 C-4.97418746 18.0202513 -6.81290005 16.99677564 -9 16 C-9.66 16.99 -10.32 17.98 -11 19 C-11.33 17.68 -11.66 16.36 -12 15 C-10.25 13.4375 -10.25 13.4375 -8 12 C-5.75 12.3125 -5.75 12.3125 -4 13 C-2.68 11.35 -1.36 9.7 0 8 C-0.37125 7.4225 -0.7425 6.845 -1.125 6.25 C-2 4 -2 4 -1.125 1.75 C-0.75375 1.1725 -0.3825 0.595 0 0 Z " fill="#32AFB9" transform="translate(127,109)"/>
<path d="M0 0 C10.55808656 5.0022779 10.55808656 5.0022779 15 9 C13.68 9 12.36 9 11 9 C11 9.66 11 10.32 11 11 C10.01 11 9.02 11 8 11 C8 11.66 8 12.32 8 13 C5 15 5 15 3.25 14.875 C-0.05143198 13.59110979 -2.95762549 11.81372326 -6 10 C-5.01 9.67 -4.02 9.34 -3 9 C-2.30062468 7.68352881 -1.63270867 6.34977849 -1 5 C-0.34 4.67 0.32 4.34 1 4 C0.67 2.68 0.34 1.36 0 0 Z " fill="#1990A5" transform="translate(111,167)"/>
<path d="M0 0 C0.33 0 0.66 0 1 0 C1 12.21 1 24.42 1 37 C3.475 34.525 3.475 34.525 6 32 C12 26 18 20 24 14 C24.33 14.99 24.66 15.98 25 17 C24.37351563 17.60328125 23.74703125 18.2065625 23.1015625 18.828125 C22.28429687 19.62734375 21.46703125 20.4265625 20.625 21.25 C19.81289062 22.03890625 19.00078125 22.8278125 18.1640625 23.640625 C16.21651452 25.76394445 15.18312654 27.42305316 14 30 C10.96935315 33.35828435 8.0327762 35.92911492 4 38 C3.34 38 2.68 38 2 38 C1.67 38.66 1.34 39.32 1 40 C-1.21025924 35.60588394 -1.1853575 31.65295345 -0.9765625 26.85546875 C-0.95153656 26.08568192 -0.92651062 25.31589508 -0.90072632 24.52278137 C-0.81890984 22.07721375 -0.72217465 19.63250072 -0.625 17.1875 C-0.56672109 15.52412284 -0.50941868 13.86071116 -0.453125 12.19726562 C-0.31338876 8.13102372 -0.16027533 4.06548204 0 0 Z " fill="#5DB2B6" transform="translate(117,71)"/>
<path d="M0 0 C0.33 0 0.66 0 1 0 C1 9.9 1 19.8 1 30 C-2.70500184 28.51799926 -5.67262 27.091496 -9 25 C-6.31158141 22.74754119 -4.35358125 21.11786042 -1 20 C-0.67 13.4 -0.34 6.8 0 0 Z " fill="#218B9A" transform="translate(117,125)"/>
<path d="M0 0 C0.66 0 1.32 0 2 0 C2.33 1.32 2.66 2.64 3 4 C4.32 4 5.64 4 7 4 C7 4.66 7 5.32 7 6 C6.01 6.495 6.01 6.495 5 7 C5.99 7.66 6.98 8.32 8 9 C1.43946188 13.92466368 1.43946188 13.92466368 -2.08984375 14.109375 C-4 13.8125 -4 13.8125 -7 13 C-6.34 12.34 -5.68 11.68 -5 11 C-3.68 11 -2.36 11 -1 11 C-1.33 9.02 -1.66 7.04 -2 5 C-1.34 4.67 -0.68 4.34 0 4 C0 2.68 0 1.36 0 0 Z " fill="#157B92" transform="translate(132,176)"/>
<path d="M0 0 C1.32 0.66 2.64 1.32 4 2 C3.79375 2.928125 3.5875 3.85625 3.375 4.8125 C2.63307034 8.15173402 2.63307034 8.15173402 5 11 C4.54625 11.4125 4.0925 11.825 3.625 12.25 C1.94049626 14.06408095 1.00734029 15.75285627 0 18 C-2.475 17.01 -2.475 17.01 -5 16 C-3.88213958 12.64641875 -2.25245881 10.68841859 0 8 C-0.37125 7.4225 -0.7425 6.845 -1.125 6.25 C-2 4 -2 4 -1.125 1.75 C-0.75375 1.1725 -0.3825 0.595 0 0 Z " fill="#36BDC5" transform="translate(127,109)"/>
<path d="M0 0 C-1.47994954 3.90168516 -3.51191749 4.90715049 -7 7 C-9.17042311 10.26667072 -9.18742225 12.89240081 -9.0625 16.75 C-8.9727402 21.63293299 -9.25816725 26.17808716 -10 31 C-10.33 31 -10.66 31 -11 31 C-11.14518182 26.9170404 -11.23403347 22.83474359 -11.3125 18.75 C-11.35439453 17.59113281 -11.39628906 16.43226562 -11.43945312 15.23828125 C-11.56362253 6.64575848 -11.56362253 6.64575848 -8.66796875 3.328125 C-7.78753906 2.88984375 -6.90710938 2.4515625 -6 2 C-3 0 -3 0 0 0 Z " fill="#B2E7E7" transform="translate(118,59)"/>
<path d="M0 0 C0.99 0 1.98 0 3 0 C3 0.66 3 1.32 3 2 C4.65 1.67 6.3 1.34 8 1 C6.515 3.475 6.515 3.475 5 6 C5.99 5.67 6.98 5.34 8 5 C8 6.32 8 7.64 8 9 C9.32 9 10.64 9 12 9 C12 9.66 12 10.32 12 11 C11.34 11 10.68 11 10 11 C9.67 11.66 9.34 12.32 9 13 C5.37 9.37 1.74 5.74 -2 2 C-1.34 1.34 -0.68 0.68 0 0 Z M9 3 C9.33 3.66 9.66 4.32 10 5 C9.34 4.67 8.68 4.34 8 4 C8.33 3.67 8.66 3.34 9 3 Z " fill="#0F9EB3" transform="translate(153,154)"/>
<path d="M0 0 C0.9590625 0.495 0.9590625 0.495 1.9375 1 C2.71609375 1.39316406 3.4946875 1.78632812 4.296875 2.19140625 C5.08578125 2.64386719 5.8746875 3.09632812 6.6875 3.5625 C7.48671875 4.01753906 8.2859375 4.47257812 9.109375 4.94140625 C9.71265625 5.29074219 10.3159375 5.64007813 10.9375 6 C10.9375 6.66 10.9375 7.32 10.9375 8 C7.02538267 6.84414715 4.0629959 5.64465038 0.9375 3 C-2.27293882 4.38188453 -4.11186365 5.92421903 -6.3125 8.625 C-6.83328125 9.25664063 -7.3540625 9.88828125 -7.890625 10.5390625 C-8.27734375 11.02117187 -8.6640625 11.50328125 -9.0625 12 C-10.3825 11.67 -11.7025 11.34 -13.0625 11 C-11.32711877 9.12997712 -9.5765665 7.28011908 -7.8125 5.4375 C-7.07580078 4.63795898 -7.07580078 4.63795898 -6.32421875 3.82226562 C-2.62525202 0 -2.62525202 0 0 0 Z " fill="#9BDDDE" transform="translate(159.0625,69)"/>
<path d="M0 0 C0.33 0 0.66 0 1 0 C1.17499733 3.2284763 1.28106618 6.45572926 1.375 9.6875 C1.45041016 11.05551758 1.45041016 11.05551758 1.52734375 12.45117188 C1.67206768 19.08435223 1.67206768 19.08435223 -0.29199219 21.76025391 C-2.42605742 23.59918245 -4.10445966 25 -7 25 C-7 23.68 -7 22.36 -7 21 C-7.99 20.67 -8.98 20.34 -10 20 C-9.01 19.34 -8.02 18.68 -7 18 C-6.34 18.33 -5.68 18.66 -5 19 C-4.375 21.0625 -4.375 21.0625 -4 23 C-3.814375 22.1028125 -3.814375 22.1028125 -3.625 21.1875 C-3 19 -3 19 -1 16 C-0.69933846 13.24582682 -0.49074701 10.57354853 -0.375 7.8125 C-0.31699219 6.68811523 -0.31699219 6.68811523 -0.2578125 5.54101562 C-0.16371784 3.69440801 -0.08077681 1.8472381 0 0 Z " fill="#1EA8B7" transform="translate(187,134)"/>
<path d="M0 0 C0.66 0.33 1.32 0.66 2 1 C2 1.66 2 2.32 2 3 C3.32 3.33 4.64 3.66 6 4 C6.33 3.34 6.66 2.68 7 2 C7.99 2.99 8.98 3.98 10 5 C8.125 6.0625 8.125 6.0625 6 7 C5.34 6.67 4.68 6.34 4 6 C4.33 7.32 4.66 8.64 5 10 C4.21625 9.67 3.4325 9.34 2.625 9 C0.15667503 7.88133489 0.15667503 7.88133489 -2 8 C-2 6 -2 6 -0.5 4.375 C-0.005 3.92125 0.49 3.4675 1 3 C-0.32 3 -1.64 3 -3 3 C-3 2.34 -3 1.68 -3 1 C-2.01 0.67 -1.02 0.34 0 0 Z " fill="#09B1C1" transform="translate(140,134)"/>
<path d="M0 0 C0 0.66 0 1.32 0 2 C-0.66 2 -1.32 2 -2 2 C-2.33 3.98 -2.66 5.96 -3 8 C-6.37503669 6.8141763 -8.64722731 5.72426311 -11 3 C-10.13375 2.814375 -10.13375 2.814375 -9.25 2.625 C-6.97341328 2.07474322 -6.97341328 2.07474322 -4.9375 0.9375 C-3 0 -3 0 0 0 Z " fill="#1C92A5" transform="translate(108,168)"/>
<path d="M0 0 C1.32 0.33 2.64 0.66 4 1 C4 1.66 4 2.32 4 3 C5.32 2.67 6.64 2.34 8 2 C8 2.66 8 3.32 8 4 C9.32 4 10.64 4 12 4 C11.67 4.99 11.34 5.98 11 7 C10.34 7 9.68 7 9 7 C8.67 7.66 8.34 8.32 8 9 C6.66368764 7.6905332 5.33102075 6.37734515 4 5.0625 C3.2575 4.33160156 2.515 3.60070312 1.75 2.84765625 C0 1 0 1 0 0 Z " fill="#23A3B2" transform="translate(129,133)"/>
<path d="M0 0 C0.33 0 0.66 0 1 0 C1.33 2.97 1.66 5.94 2 9 C2.33 8.34 2.66 7.68 3 7 C3.66 7 4.32 7 5 7 C5 8.98 5 10.96 5 13 C3.35 13.66 1.7 14.32 0 15 C0 10.05 0 5.1 0 0 Z " fill="#17AFBC" transform="translate(108,134)"/>
<path d="M0 0 C0.33 0 0.66 0 1 0 C1 4.95 1 9.9 1 15 C1.66 15.33 2.32 15.66 3 16 C3 17.32 3 18.64 3 20 C3.66 20.66 4.32 21.32 5 22 C4.34 22.66 3.68 23.32 3 24 C0.89592904 22.30363829 0.06759322 21.45018536 -0.34057617 18.73168945 C-0.32486572 17.86761475 -0.30915527 17.00354004 -0.29296875 16.11328125 C-0.28330078 15.17548828 -0.27363281 14.23769531 -0.26367188 13.27148438 C-0.23853516 12.29501953 -0.21339844 11.31855469 -0.1875 10.3125 C-0.17396484 9.32443359 -0.16042969 8.33636719 -0.14648438 7.31835938 C-0.11112203 4.87835769 -0.06177033 2.43945281 0 0 Z " fill="#319EAE" transform="translate(70,133)"/>
<path d="M0 0 C0.99 0 1.98 0 3 0 C2.34 1.32 1.68 2.64 1 4 C0.34 4 -0.32 4 -1 4 C-1 4.66 -1 5.32 -1 6 C-0.34 6 0.32 6 1 6 C1 6.66 1 7.32 1 8 C-0.32 8.33 -1.64 8.66 -3 9 C-3 8.34 -3 7.68 -3 7 C-3.66 7 -4.32 7 -5 7 C-4.34 5.02 -3.68 3.04 -3 1 C-2.01 1.33 -1.02 1.66 0 2 C0 1.34 0 0.68 0 0 Z " fill="#16B7C4" transform="translate(136,127)"/>
<path d="M0 0 C1.9375 0.8125 1.9375 0.8125 4 2 C4.33 2.99 4.66 3.98 5 5 C5.99 4.67 6.98 4.34 8 4 C8 4.99 8 5.98 8 7 C7.34 7 6.68 7 6 7 C5.67 7.66 5.34 8.32 5 9 C2.69 6.69 0.38 4.38 -2 2 C-1.34 1.34 -0.68 0.68 0 0 Z " fill="#1F9CAE" transform="translate(140,141)"/>
<path d="M0 0 C0.33 0.99 0.66 1.98 1 3 C-1.97 5.97 -4.94 8.94 -8 12 C-8.99 11.67 -9.98 11.34 -11 11 C-7.37 7.37 -3.74 3.74 0 0 Z " fill="#73C9CB" transform="translate(141,85)"/>
<path d="M0 0 C2.375 -0.1875 2.375 -0.1875 5 0 C7 3 7 3 7 5 C8.45833358 6.62514468 8.45833358 6.62514468 10 8 C5.89041233 6.54955729 2.56741255 4.48889248 -1 2 C-0.67 1.34 -0.34 0.68 0 0 Z " fill="#2096A8" transform="translate(75,156)"/>
<path d="M0 0 C0.33 0 0.66 0 1 0 C0.98839844 0.66386719 0.97679688 1.32773438 0.96484375 2.01171875 C0.87490465 7.51704539 0.87490465 7.51704539 1.6875 12.9375 C1.790625 13.618125 1.89375 14.29875 2 15 C0.51953125 16.62890625 0.51953125 16.62890625 -1 18 C-1.02707139 15.75006641 -1.04642829 13.50003905 -1.0625 11.25 C-1.07410156 9.99703125 -1.08570312 8.7440625 -1.09765625 7.453125 C-1.02021027 4.71463499 -0.82780815 2.58119707 0 0 Z " fill="#47C7CD" transform="translate(108,107)"/>
<path d="M0 0 C0.66 0.33 1.32 0.66 2 1 C2.625 3.0625 2.625 3.0625 3 5 C2.01 5.33 1.02 5.66 0 6 C-0.33 5.34 -0.66 4.68 -1 4 C-2.65 5.32 -4.3 6.64 -6 8 C-6 6.68 -6 5.36 -6 4 C-3 1.75 -3 1.75 0 0 Z " fill="#90D9D9" transform="translate(77,82)"/>
<path d="M0 0 C5.28 0 10.56 0 16 0 C15.67 0.66 15.34 1.32 15 2 C9.24632454 3.19041561 5.51031263 2.95156906 0 1 C0 0.67 0 0.34 0 0 Z " fill="#2C3542" transform="translate(71,18)"/>
<path d="M0 0 C1.14926266 0.95421808 2.29430541 1.91352045 3.4375 2.875 C4.07558594 3.40867188 4.71367187 3.94234375 5.37109375 4.4921875 C7 6 7 6 8 8 C6.35 7.67 4.7 7.34 3 7 C3 6.01 3 5.02 3 4 C1.35 4 -0.3 4 -2 4 C-1.33333333 2.66666667 -0.66666667 1.33333333 0 0 Z " fill="#1F9FAF" transform="translate(149,137)"/>
<path d="M0 0 C0.33 0 0.66 0 1 0 C1.41846009 1.57750424 1.80896389 3.16244248 2.1875 4.75 C2.51814453 6.07257813 2.51814453 6.07257813 2.85546875 7.421875 C3 10 3 10 0 14 C0 9.38 0 4.76 0 0 Z " fill="#5DE5E3" transform="translate(178,91)"/>
<path d="M0 0 C0.66 0.33 1.32 0.66 2 1 C0.73577236 3.52845528 -0.52845528 3.76422764 -3 5 C-3.33 5.66 -3.66 6.32 -4 7 C-4.99 7 -5.98 7 -7 7 C-7 6.01 -7 5.02 -7 4 C-1.7265625 0.77734375 -1.7265625 0.77734375 0 0 Z " fill="#1D859C" transform="translate(141,171)"/>
<path d="M0 0 C1.32 0.66 2.64 1.32 4 2 C3.01 3.98 2.02 5.96 1 8 C0.01 6.68 -0.98 5.36 -2 4 C-1.34 2.68 -0.68 1.36 0 0 Z " fill="#4CCED1" transform="translate(127,109)"/>
<path d="M0 0 C2.66666667 0.66666667 5.33333333 1.33333333 8 2 C8 2.66 8 3.32 8 4 C7.34 4 6.68 4 6 4 C5.67 4.66 5.34 5.32 5 6 C3.35 4.02 1.7 2.04 0 0 Z " fill="#1C8A9E" transform="translate(157,161)"/>
<path d="M0 0 C1.65 0 3.3 0 5 0 C5 0.66 5 1.32 5 2 C6.32 2 7.64 2 9 2 C9 2.99 9 3.98 9 5 C5.51694958 4.35499066 2.93797836 2.95865224 0 1 C0 0.67 0 0.34 0 0 Z " fill="#249EAE" transform="translate(108,149)"/>
<path d="M0 0 C0 1.98 0 3.96 0 6 C-1.65 5.67 -3.3 5.34 -5 5 C-5 3 -5 3 -3.625 1.375 C-2 0 -2 0 0 0 Z " fill="#0CCDCF" transform="translate(187,124)"/>
<path d="M0 0 C1.37562854 1.28965176 2.70766393 2.62689293 4 4 C4 4.66 4 5.32 4 6 C1.08482708 4.92598892 -0.77810176 4.22189824 -3 2 C-2.01 2 -1.02 2 0 2 C0 1.34 0 0.68 0 0 Z " fill="#1F8A9E" transform="translate(108,174)"/>
<path d="M0 0 C2.0625 0.4375 2.0625 0.4375 4 1 C3.67 1.99 3.34 2.98 3 4 C1.35 4.33 -0.3 4.66 -2 5 C-1.125 1.125 -1.125 1.125 0 0 Z " fill="#19A6B9" transform="translate(177,147)"/>
<path d="M0 0 C-0.33 0.99 -0.66 1.98 -1 3 C-0.34 3.33 0.32 3.66 1 4 C0.67 4.99 0.34 5.98 0 7 C-1.65 5.02 -3.3 3.04 -5 1 C-3 0 -3 0 0 0 Z " fill="#1E8A9E" transform="translate(156,154)"/>
<path d="M0 0 C0.66 0.99 1.32 1.98 2 3 C0.625 6.6875 0.625 6.6875 -1 10 C-1.66 9.67 -2.32 9.34 -3 9 C-2.01 6.03 -1.02 3.06 0 0 Z " fill="#2F3944" transform="translate(26,48)"/>
<path d="M0 0 C-1 3 -1 3 -3 4 C-3.66 4.99 -4.32 5.98 -5 7 C-5.33 5.68 -5.66 4.36 -6 3 C-2.25 0 -2.25 0 0 0 Z " fill="#31BFC6" transform="translate(121,121)"/>
<path d="M0 0 C0.33 0.66 0.66 1.32 1 2 C-0.32 3.65 -1.64 5.3 -3 7 C-3.99 6.67 -4.98 6.34 -6 6 C-4.02 4.02 -2.04 2.04 0 0 Z " fill="#333C4A" transform="translate(40,30)"/>
</svg>
